<svg width="0" height="0" class="hidden">
  <symbol xmlns="http://www.w3.org/2000/svg" viewBox="0 0 18 18" id="dribbble">
    <path d="M17.5333 8.5215C17.5333 9.09859 17.4746 9.67489 17.3592 10.2366C17.2467 10.785 17.08 11.3234 16.8617 11.8381C16.6483 12.3437 16.3837 12.8309 16.0745 13.2853C15.77 13.7368 15.4191 14.1603 15.0337 14.5465C14.6474 14.9309 14.2224 15.2808 13.7711 15.5867C13.3152 15.8937 12.8273 16.1579 12.3215 16.3723C11.806 16.5894 11.2664 16.7559 10.7184 16.8682C10.1559 16.9839 9.57755 17.043 8.99962 17.043C8.42126 17.043 7.8429 16.9839 7.28121 16.8682C6.73244 16.7559 6.19283 16.5894 5.67779 16.3723C5.17195 16.1579 4.68357 15.8937 4.22772 15.5867C3.77645 15.2808 3.35143 14.9309 2.96599 14.5465C2.58015 14.1603 2.22928 13.7368 1.92427 13.2853C1.61675 12.8309 1.35172 12.3437 1.13755 11.8381C0.919183 11.3234 0.752114 10.785 0.639188 10.2366C0.525025 9.67489 0.466675 9.09859 0.466675 8.5215C0.466675 7.94398 0.524992 7.36645 0.639221 6.80594C0.752147 6.25753 0.919216 5.71829 1.13759 5.20443C1.35175 4.69848 1.61678 4.21084 1.9243 3.75645C2.22931 3.3046 2.58018 2.88182 2.96602 2.49527C3.35146 2.11079 3.77648 1.76173 4.22775 1.45632C4.6836 1.14798 5.17198 0.883798 5.67783 0.669077C6.19286 0.451421 6.73244 0.284594 7.28124 0.173098C7.84294 0.0582662 8.4213 0 8.99966 0C9.57758 0 10.1559 0.0582662 10.7185 0.173098C11.2664 0.284627 11.806 0.451454 12.3215 0.669077C12.8273 0.883765 13.3153 1.14798 13.7711 1.45632C14.2224 1.76173 14.6475 2.11079 15.0337 2.49527C15.4191 2.88182 15.77 3.3046 16.0746 3.75645C16.3837 4.21084 16.6483 4.69851 16.8617 5.20443C17.08 5.71829 17.2467 6.25753 17.3592 6.80594C17.4746 7.36645 17.5333 7.94398 17.5333 8.5215ZM5.89026 1.93938C3.85805 2.89765 2.34131 4.76754 1.86836 7.02108C2.06048 7.02274 5.0973 7.06103 8.59622 6.13271C7.33492 3.89498 5.98735 2.06882 5.89026 1.93938ZM9.2 7.25328C5.44774 8.37501 1.84711 8.2943 1.71795 8.28933C1.71585 8.36754 1.71211 8.44325 1.71211 8.52149C1.71211 10.3909 2.41839 12.0952 3.57929 13.3839C3.57678 13.3801 5.57108 9.84714 9.50377 8.57726C9.59876 8.54564 9.69546 8.51733 9.79128 8.48988C9.60838 8.07631 9.40875 7.66188 9.2 7.25328ZM13.8124 3.05992C12.5293 1.93022 10.8447 1.24496 8.9996 1.24496C8.40748 1.24496 7.83286 1.31654 7.28242 1.44884C7.39157 1.59533 8.76042 3.40862 10.0067 5.69374C12.7565 4.66436 13.7944 3.08653 13.8124 3.05992ZM10.288 9.69569C10.2718 9.70107 10.2556 9.7057 10.2397 9.7115C5.93997 11.2083 4.53583 14.2248 4.52064 14.2577C5.75781 15.2184 7.30956 15.798 8.99965 15.798C10.0088 15.798 10.9701 15.5929 11.8448 15.2213C11.7368 14.5856 11.3135 12.357 10.288 9.69569ZM13.0719 14.5564C14.7082 13.4538 15.8703 11.7029 16.1945 9.67485C16.0445 9.62659 14.0057 8.98206 11.6535 9.35864C12.6093 11.9817 12.9977 14.1179 13.0719 14.5564ZM10.5676 6.77808C10.7368 7.12511 10.9006 7.47831 11.0518 7.83327C11.1056 7.96061 11.1581 8.08545 11.2093 8.21025C13.7128 7.89567 16.1792 8.42494 16.2846 8.44655C16.2679 6.72148 15.65 5.13825 14.6275 3.89875C14.6137 3.91827 13.4449 5.60468 10.5676 6.77808Z"></path>
  </symbol>
  <symbol xmlns="http://www.w3.org/2000/svg" viewBox="0 0 18 18" id="instagram">
    <path d="M9.00081 0C6.68327 0 6.39243 0.0101334 5.48219 0.0515561C4.57374 0.0931565 3.95364 0.23698 3.41106 0.448005C2.84981 0.665962 2.37372 0.957521 1.8994 1.43201C1.42473 1.90633 1.13317 2.38242 0.914502 2.9435C0.702944 3.48626 0.558942 4.10653 0.518053 5.01463C0.477342 5.92486 0.466675 6.21589 0.466675 8.53342C0.466675 10.851 0.476986 11.1409 0.518231 12.0511C0.560009 12.9596 0.703833 13.5797 0.914679 14.1223C1.13282 14.6835 1.42437 15.1596 1.89887 15.6339C2.37301 16.1086 2.8491 16.4009 3.40999 16.6188C3.95293 16.8299 4.57321 16.9737 5.48148 17.0153C6.39171 17.0567 6.68238 17.0668 8.99974 17.0668C11.3175 17.0668 11.6074 17.0567 12.5176 17.0153C13.4261 16.9737 14.0469 16.8299 14.5898 16.6188C15.1509 16.4009 15.6263 16.1086 16.1004 15.6339C16.5751 15.1596 16.8667 14.6835 17.0853 14.1225C17.2951 13.5797 17.4391 12.9594 17.4818 12.0513C17.5227 11.1411 17.5333 10.851 17.5333 8.53342C17.5333 6.21589 17.5227 5.92504 17.4818 5.01481C17.4391 4.10635 17.2951 3.48626 17.0853 2.94368C16.8667 2.38242 16.5751 1.90633 16.1004 1.43201C15.6258 0.957343 15.1511 0.665785 14.5893 0.448005C14.0453 0.23698 13.4249 0.0931565 12.5164 0.0515561C11.6062 0.0101334 11.3164 0 8.99814 0H9.00081ZM8.23525 1.53777C8.46245 1.53741 8.71597 1.53777 9.00077 1.53777C11.2792 1.53777 11.5492 1.54595 12.449 1.58684C13.281 1.62488 13.7326 1.76391 14.0334 1.88071C14.4316 2.03537 14.7155 2.22027 15.014 2.51894C15.3127 2.81761 15.4976 3.10205 15.6526 3.50028C15.7694 3.80073 15.9086 4.25229 15.9464 5.0843C15.9873 5.98386 15.9962 6.25409 15.9962 8.53144C15.9962 10.8088 15.9873 11.079 15.9464 11.9786C15.9084 12.8106 15.7694 13.2622 15.6526 13.5626C15.4979 13.9608 15.3127 14.2444 15.014 14.5429C14.7153 14.8416 14.4318 15.0264 14.0334 15.1811C13.7329 15.2984 13.281 15.4371 12.449 15.4752C11.5494 15.5161 11.2792 15.5249 9.00077 15.5249C6.72217 15.5249 6.45212 15.5161 5.55256 15.4752C4.72055 15.4368 4.26899 15.2977 3.96801 15.1809C3.56978 15.0263 3.28533 14.8414 2.98666 14.5427C2.68799 14.244 2.5031 13.9603 2.34808 13.5619C2.23128 13.2614 2.09208 12.8099 2.05421 11.9779C2.01332 11.0783 2.00514 10.8081 2.00514 8.52931C2.00514 6.25053 2.01332 5.98173 2.05421 5.08216C2.09226 4.25015 2.23128 3.79859 2.34808 3.49779C2.50275 3.09956 2.68799 2.81512 2.98666 2.51645C3.28533 2.21778 3.56978 2.03289 3.96801 1.87786C4.26881 1.76053 4.72055 1.62186 5.55256 1.58364C6.33977 1.54808 6.64484 1.53741 8.23525 1.53564V1.53777ZM13.5558 2.95468C12.9905 2.95468 12.5318 3.41282 12.5318 3.97833C12.5318 4.54367 12.9905 5.00234 13.5558 5.00234C14.1212 5.00234 14.5799 4.54367 14.5799 3.97833C14.5799 3.41299 14.1212 2.95468 13.5558 2.95468ZM9.00082 4.15113C6.58071 4.15113 4.61855 6.11328 4.61855 8.5334C4.61855 10.9535 6.58071 12.9148 9.00082 12.9148C11.4209 12.9148 13.3824 10.9535 13.3824 8.5334C13.3824 6.11328 11.4209 4.15113 9.00082 4.15113ZM9.00079 5.68892C10.5717 5.68892 11.8453 6.96236 11.8453 8.5334C11.8453 10.1043 10.5717 11.3779 9.00079 11.3779C7.42975 11.3779 6.15632 10.1043 6.15632 8.5334C6.15632 6.96236 7.42975 5.68892 9.00079 5.68892Z"></path>
  </symbol>
  <symbol xmlns="http://www.w3.org/2000/svg" viewBox="0 0 16 13" id="twitter">
    <path d="M7.5208 3.405L7.55438 3.95864L6.99479 3.89084C4.95791 3.63097 3.17843 2.74968 1.66756 1.26955L0.928908 0.535132L0.73865 1.07747C0.33575 2.28643 0.593158 3.56318 1.43253 4.42188C1.8802 4.89643 1.77948 4.96422 1.00725 4.68175C0.73865 4.59136 0.503625 4.52357 0.481242 4.55747C0.4029 4.63656 0.6715 5.66474 0.884142 6.07149C1.17513 6.63643 1.76828 7.19006 2.4174 7.51773L2.96579 7.7776L2.31668 7.7889C1.68994 7.7889 1.66756 7.80019 1.73471 8.03747C1.95854 8.77188 2.84268 9.55149 3.82755 9.89045L4.52143 10.1277L3.91708 10.4893C3.02175 11.009 1.96973 11.3028 0.917717 11.3254C0.414092 11.3367 0 11.3819 0 11.4158C0 11.5288 1.36538 12.1615 2.15999 12.4101C4.54382 13.1445 7.37531 12.8281 9.50173 11.574C11.0126 10.6814 12.5235 8.90747 13.2286 7.19006C13.6091 6.27487 13.9896 4.60266 13.9896 3.80045C13.9896 3.28071 14.0232 3.21292 14.6499 2.59149C15.0192 2.22994 15.3662 1.83448 15.4333 1.72149C15.5452 1.50682 15.534 1.50682 14.9633 1.6989C14.012 2.03786 13.8777 1.99266 14.3477 1.48422C14.6947 1.12266 15.1088 0.46734 15.1088 0.275262C15.1088 0.241366 14.9409 0.297859 14.7506 0.399547C14.5492 0.512534 14.1015 0.682015 13.7658 0.783703L13.1614 0.975781L12.613 0.602924C12.3108 0.399547 11.8856 0.173573 11.6617 0.105781C11.0909 -0.0524005 10.218 -0.0298031 9.70318 0.150976C8.30422 0.659417 7.42008 1.97007 7.5208 3.405Z"></path>
  </symbol>
  <symbol xmlns="http://www.w3.org/2000/svg" viewBox="0 0 18 13" id="youtube">
    <path d="M15.6679 0.366219C16.4022 0.567729 16.9805 1.16148 17.1768 1.91548C17.5335 3.28203 17.5335 6.13333 17.5335 6.13333C17.5335 6.13333 17.5335 8.98454 17.1768 10.3512C16.9805 11.1052 16.4022 11.6989 15.6679 11.9005C14.3371 12.2667 9.00013 12.2667 9.00013 12.2667C9.00013 12.2667 3.66321 12.2667 2.3323 11.9005C1.59795 11.6989 1.01962 11.1052 0.823354 10.3512C0.466797 8.98454 0.466797 6.13333 0.466797 6.13333C0.466797 6.13333 0.466797 3.28203 0.823354 1.91548C1.01962 1.16148 1.59795 0.567729 2.3323 0.366219C3.66321 0 9.00013 0 9.00013 0C9.00013 0 14.3371 0 15.6679 0.366219ZM7.40015 3.73328V9.06661L11.6668 6.40004L7.40015 3.73328Z"></path>
  </symbol>
</svg>